<svg>

	<symbol id="behance" viewBox="-127 175.8 256 162.2" xmlns="http://www.w3.org/2000/svg">
		<g>
			<path d="M-9.5,192.7c4.8,6.7,7.2,14.8,7.2,24.2c0,9.6-2.4,17.4-7.3,23.3c-2.7,3.3-6.8,6.3-12.1,9c8.1,3,14.2,7.6,18.3,14
	c4.1,6.4,6.2,14.1,6.2,23.2c0,9.4-2.3,17.8-7.1,25.2c-3,4.9-6.7,9.1-11.2,12.4c-5,3.9-11,6.5-17.9,8c-6.9,1.4-14.3,2.1-22.4,2.1
	H-127V175.8h76.5C-31.3,176.1-17.6,181.7-9.5,192.7z M-95.5,203.3v34.9H-57c6.9,0,12.4-1.3,16.7-3.9s6.4-7.3,6.4-13.9
	c0-7.4-2.8-12.2-8.5-14.6c-4.9-1.6-11.1-2.5-18.7-2.5H-95.5z M-95.5,264.3v42.2H-57c6.9,0,12.2-0.9,16-2.8c7-3.5,10.4-10,10.4-19.7
	c0-8.2-3.3-13.9-10.1-17c-3.8-1.7-9-2.6-15.8-2.7H-95.5z M98.4,219.4c8.2,3.6,14.9,9.4,20.2,17.3c4.8,6.9,7.9,15,9.3,24.2
	c0.8,5.4,1.2,13.1,1,23.2H43.7c0.5,11.7,4.5,20,12.2,24.7c4.7,2.9,10.3,4.4,16.9,4.4c6.9,0,12.6-1.8,17-5.4c2.4-1.9,4.5-4.6,6.3-8.1
	h31.2c-0.8,6.9-4.6,14-11.3,21.2C105.5,332.3,90.9,338,72,338c-15.6,0-29.3-4.8-41.2-14.4c-11.9-9.6-17.9-25.2-17.9-46.8
	c0-20.3,5.4-35.8,16.1-46.6C39.8,219.4,53.7,214,70.8,214C81.1,213.9,90.3,215.7,98.4,219.4z M52.7,245.8c-4.3,4.5-7,10.5-8.2,18.1
	h52.7c-0.6-8.1-3.3-14.3-8.1-18.5c-4.9-4.2-11-6.3-18.2-6.3C63.1,239.1,57,241.4,52.7,245.8z M104.4,183.2H36.6v19.7h67.8V183.2z"/>
		</g>
	</symbol>

	<symbol id="dribble" viewBox="0 0 24 24" xmlns="http://www.w3.org/2000/svg">
		<g>
			<circle cx="12" cy="12" r="10.5"/>
			<path d="M8.12,2.24A32.47,32.47,0,0,1,12.8,9.13a33.23,33.23,0,0,1,1.58,3.56,36.16,36.16,0,0,1,2.15,8.79"/>
			<path d="M19.67,4.82A18.16,18.16,0,0,1,12.8,9.13,28,28,0,0,1,1.55,11"/>
			<path  d="M22.42,13.21a16.66,16.66,0,0,0-8-.52A13,13,0,0,0,5.09,19.9"/>
		</g>
	</symbol>

	<symbol id="facebook" viewBox="0 0 640 640" xmlns="http://www.w3.org/2000/svg">
		<g>
			<path d="M380.001 120.001h99.993V0h-99.993c-77.186 0-139.986 62.8-139.986 139.986v60h-80.009V320h79.985v320h120.013V320h99.994l19.996-120.013h-119.99v-60.001c0-10.843 9.154-19.996 19.996-19.996v.012z"/>
		</g>
	</symbol>

	<symbol id="twitter" viewBox="0 0 640 640" xmlns="http://www.w3.org/2000/svg">
		<g>
			<path
				d="M640.012 121.513c-23.528 10.524-48.875 17.516-75.343 20.634 27.118-16.24 47.858-41.977 57.756-72.615-25.347 14.988-53.516 25.985-83.363 31.866-24-25.5-58.087-41.35-95.848-41.35-72.508 0-131.21 58.736-131.21 131.198 0 10.228 1.134 20.232 3.355 29.882-109.1-5.528-205.821-57.757-270.57-137.222a131.423 131.423 0 0 0-17.764 66c0 45.497 23.102 85.738 58.347 109.207-21.508-.638-41.74-6.638-59.505-16.359v1.642c0 63.627 45.225 116.718 105.32 128.718-11.008 2.988-22.63 4.642-34.606 4.642-8.48 0-16.654-.874-24.78-2.35 16.783 52.11 65.233 90.095 122.612 91.205-44.989 35.245-101.493 56.233-163.09 56.233-10.63 0-20.988-.65-31.334-1.89 58.229 37.359 127.206 58.997 201.31 58.997 241.42 0 373.552-200.069 373.552-373.54 0-5.764-.13-11.35-.366-16.996 25.642-18.343 47.87-41.493 65.469-67.844l.059-.059z" />
		</g>
	</symbol>

	<symbol id="linkedin" viewBox="0 0 512 512" xmlns="http://www.w3.org/2000/svg">
		<g>
			<path d="M116.504,500.219V170.654H6.975v329.564H116.504
		L116.504,500.219z M61.751,125.674c38.183,0,61.968-25.328,61.968-56.953c-0.722-32.328-23.785-56.941-61.252-56.941
		C24.994,11.781,0.5,36.394,0.5,68.722c0,31.625,23.772,56.953,60.53,56.953H61.751L61.751,125.674z M177.124,500.219
		c0,0,1.437-298.643,0-329.564H286.67v47.794h-0.727c14.404-22.49,40.354-55.533,99.44-55.533
		c72.085,0,126.116,47.103,126.116,148.333v188.971H401.971V323.912c0-44.301-15.848-74.531-55.497-74.531
		c-30.254,0-48.284,20.38-56.202,40.08c-2.897,7.012-3.602,16.861-3.602,26.711v184.047H177.124L177.124,500.219z"/>
		</g>
	</symbol>
</svg>