<svg>
	<symbol id="burger" viewBox="0 0 24 24" xmlns="http://www.w3.org/2000/svg">
		<path d="M2.25 6C2.25 5.58579 2.58579 5.25 3 5.25H21C21.4142 5.25 21.75 5.58579 21.75 6C21.75 6.41421 21.4142 6.75 21 6.75H3C2.58579 6.75 2.25 6.41421 2.25 6Z" ></path> 
		<path d="M8.25 12C8.25 11.5858 8.58579 11.25 9 11.25L21 11.25C21.4142 11.25 21.75 11.5858 21.75 12C21.75 12.4142 21.4142 12.75 21 12.75L9 12.75C8.58579 12.75 8.25 12.4142 8.25 12Z"></path> 
		<path d="M2.25 18C2.25 17.5858 2.58579 17.25 3 17.25H21C21.4142 17.25 21.75 17.5858 21.75 18C21.75 18.4142 21.4142 18.75 21 18.75H3C2.58579 18.75 2.25 18.4142 2.25 18Z"></path> 
	</symbol>

	<symbol id="facebook" viewBox="0 0 640 640" xmlns="http://www.w3.org/2000/svg">
		<g>
			<path d="M380.001 120.001h99.993V0h-99.993c-77.186 0-139.986 62.8-139.986 139.986v60h-80.009V320h79.985v320h120.013V320h99.994l19.996-120.013h-119.99v-60.001c0-10.843 9.154-19.996 19.996-19.996v.012z"/>
		</g>
	</symbol>

	<symbol id="twitter" viewBox="0 0 640 640" xmlns="http://www.w3.org/2000/svg">
		<g>
			<path
				d="M640.012 121.513c-23.528 10.524-48.875 17.516-75.343 20.634 27.118-16.24 47.858-41.977 57.756-72.615-25.347 14.988-53.516 25.985-83.363 31.866-24-25.5-58.087-41.35-95.848-41.35-72.508 0-131.21 58.736-131.21 131.198 0 10.228 1.134 20.232 3.355 29.882-109.1-5.528-205.821-57.757-270.57-137.222a131.423 131.423 0 0 0-17.764 66c0 45.497 23.102 85.738 58.347 109.207-21.508-.638-41.74-6.638-59.505-16.359v1.642c0 63.627 45.225 116.718 105.32 128.718-11.008 2.988-22.63 4.642-34.606 4.642-8.48 0-16.654-.874-24.78-2.35 16.783 52.11 65.233 90.095 122.612 91.205-44.989 35.245-101.493 56.233-163.09 56.233-10.63 0-20.988-.65-31.334-1.89 58.229 37.359 127.206 58.997 201.31 58.997 241.42 0 373.552-200.069 373.552-373.54 0-5.764-.13-11.35-.366-16.996 25.642-18.343 47.87-41.493 65.469-67.844l.059-.059z" />
		</g>
	</symbol>
</svg>