<svg>
	<symbol id="pencil" viewBox="0 0 512 512" xmlns="http://www.w3.org/2000/svg">
			<g>
				<path d="M504.262,66.75L445.226,7.706c-10.291-10.284-26.938-10.267-37.222,0l-38.278,38.278l96.282,96.266
		l38.254-38.295C514.537,93.672,514.554,77.017,504.262,66.75z"/>
				<path d="M32.815,382.921L0.025,512l129.055-32.83l319.398-319.431l-96.249-96.265L32.815,382.921z M93.179,404.792 l-21.871-21.871l278.289-278.289l21.887,21.887L93.179,404.792z"/>
			</g>
	</symbol>

	<symbol id="plane" viewBox="0 0 24 24" xmlns="http://www.w3.org/2000/svg">
			<g>
				<path d="M17.7448 2.81298C18.7095 1.8165 20.3036 1.80361 21.2843 2.78436C22.2382 3.73823 22.2559 5.27921 21.3243 6.25481L18.5456 9.16457C18.3278 9.39265 18.219 9.50668 18.1518 9.64024C18.0924 9.75847 18.0571 9.88732 18.0478 10.0193C18.0374 10.1684 18.0728 10.3221 18.1438 10.6293L19.8717 18.1169C19.9444 18.4323 19.9808 18.59 19.9691 18.7426C19.9587 18.8776 19.921 19.0091 19.8582 19.1291C19.7873 19.2647 19.6729 19.3792 19.444 19.608L19.0732 19.9788C18.4671 20.585 18.164 20.888 17.8538 20.9429C17.583 20.9908 17.3043 20.925 17.0835 20.761C16.8306 20.5733 16.695 20.1666 16.424 19.3534L14.4142 13.3241L11.0689 16.6695C10.8692 16.8691 10.7694 16.969 10.7026 17.0866C10.6434 17.1907 10.6034 17.3047 10.5846 17.423C10.5633 17.5565 10.5789 17.6968 10.61 17.9775L10.7937 19.6309C10.8249 19.9116 10.8405 20.0519 10.8192 20.1854C10.8004 20.3037 10.7604 20.4177 10.7012 20.5219C10.6344 20.6394 10.5346 20.7393 10.3349 20.939L10.1374 21.1365C9.66434 21.6095 9.42781 21.8461 9.16496 21.9146C8.93442 21.9746 8.68999 21.9504 8.47571 21.8463C8.2314 21.7276 8.04585 21.4493 7.67475 20.8926L6.10643 18.5401C6.04013 18.4407 6.00698 18.391 5.96849 18.3459C5.9343 18.3058 5.89701 18.2685 5.85694 18.2343C5.81184 18.1958 5.76212 18.1627 5.66267 18.0964L3.31018 16.5281C2.75354 16.157 2.47521 15.9714 2.35649 15.7271C2.25236 15.5128 2.22816 15.2684 2.28824 15.0378C2.35674 14.775 2.59327 14.5385 3.06633 14.0654L3.26384 13.8679C3.46352 13.6682 3.56337 13.5684 3.68095 13.5016C3.78511 13.4424 3.89906 13.4024 4.01736 13.3836C4.15089 13.3623 4.29123 13.3779 4.5719 13.4091L6.22529 13.5928C6.50596 13.6239 6.6463 13.6395 6.77983 13.6182C6.89813 13.5994 7.01208 13.5594 7.11624 13.5002C7.23382 13.4334 7.33366 13.3336 7.53335 13.1339L10.8787 9.7886L4.84939 7.77884C4.03616 7.50776 3.62955 7.37222 3.44176 7.11932C3.27777 6.89848 3.212 6.61984 3.2599 6.34898C3.31477 6.03879 3.61784 5.73572 4.22399 5.12957L4.59476 4.7588C4.82365 4.52991 4.9381 4.41546 5.07369 4.34457C5.1937 4.28183 5.3252 4.24411 5.46023 4.23371C5.61278 4.22197 5.77049 4.25836 6.0859 4.33115L13.545 6.05249C13.855 6.12401 14.01 6.15978 14.1596 6.14914C14.3041 6.13886 14.4446 6.09733 14.5714 6.02742C14.7028 5.95501 14.8134 5.84074 15.0347 5.6122L17.7448 2.81298Z"/>
			</g>
	</symbol>
	<symbol id="headset" viewBox="0 0 512 512" xmlns="http://www.w3.org/2000/svg">
			<g>
				<path  d="M411.16,97.46C368.43,55.86,311.88,32,256,32S143.57,55.86,100.84,97.46C56.45,140.67,32,197,32,256c0,26.67,8.75,61.09,32.88,125.55S137,473,157.27,477.41c5.81,1.27,12.62,2.59,18.73,2.59a60.06,60.06,0,0,0,30-8l14-8c15.07-8.82,19.47-28.13,10.8-43.35L143.88,268.08a31.73,31.73,0,0,0-43.57-11.76l-13.69,8a56.49,56.49,0,0,0-14,11.59,4,4,0,0,1-7-2A114.68,114.68,0,0,1,64,256c0-50.31,21-98.48,59.16-135.61C160,84.55,208.39,64,256,64s96,20.55,132.84,56.39C427,157.52,448,205.69,448,256a114.68,114.68,0,0,1-1.68,17.91,4,4,0,0,1-7,2,56.49,56.49,0,0,0-14-11.59l-13.69-8a31.73,31.73,0,0,0-43.57,11.76L281.2,420.65c-8.67,15.22-4.27,34.53,10.8,43.35l14,8a60.06,60.06,0,0,0,30,8c6.11,0,12.92-1.32,18.73-2.59C375,473,423,446,447.12,381.55S480,282.67,480,256C480,197,455.55,140.67,411.16,97.46Z"/>
			</g>
	</symbol>

	<symbol id="mug" viewBox="0 0 24 24" xmlns="http://www.w3.org/2000/svg">
			<g>
  				<path d="M14.032 5H5.96802C5.52939 4.99999 5.15087 4.99998 4.83762 5.02135C4.50779 5.04386 4.17788 5.09336 3.85195 5.22836C3.11687 5.53285 2.53285 6.11687 2.22836 6.85195C2.09336 7.17788 2.04386 7.50779 2.02135 7.83762C1.99998 8.15087 1.99999 8.52934 2 8.96797V15.6667C2 17.7784 2.16809 19.6089 3.56583 20.7366C4.24347 21.2833 5.11558 21.5861 6.14322 21.7617C7.17262 21.9377 8.44648 22 10 22C11.5535 22 12.8274 21.9377 13.8568 21.7617C14.8844 21.5861 15.7565 21.2833 16.4342 20.7366C17.528 19.8541 17.8688 18.5412 17.9652 17H19C20.6569 17 22 15.6569 22 14V11C22 9.34315 20.6569 8 19 8H17.9877C17.9852 7.94407 17.9822 7.88994 17.9787 7.83762C17.9561 7.50779 17.9066 7.17788 17.7716 6.85195C17.4672 6.11687 16.8831 5.53285 16.1481 5.22836C15.8221 5.09336 15.4922 5.04386 15.1624 5.02135C14.8491 4.99998 14.4706 4.99999 14.032 5ZM18 10V15H19C19.5523 15 20 14.5523 20 14V11C20 10.4477 19.5523 10 19 10H18Z"/>
			</g>
	</symbol>
	<symbol id="spacecraft" viewBox="0 0 512 512" xmlns="http://www.w3.org/2000/svg">
			<g>
				<g>
					<g>
						<path d="M292.382,121.665c-20.059-20.059-52.696-20.06-72.759,0c-3.459,3.459-3.459,9.068,0,12.526
							c3.458,3.459,9.066,3.459,12.526,0c13.152-13.153,34.555-13.151,47.705,0c1.73,1.729,3.998,2.595,6.264,2.595
							s4.534-0.865,6.264-2.595C295.842,130.732,295.842,125.123,292.382,121.665z"/>
					</g>
				</g>
				<g>
					<g>
						<path d="M438.877,430.45l-14.078-81.343c-5.714-32.874-23.489-59.026-47.536-69.953c-1.997-0.911-3.99-1.998-5.919-3.23
							c-20.102-12.85-33.093-41.287-33.093-72.446v-43.451c0-31.372-6.517-61.779-19.363-90.367
							c-9.731-21.731-22.88-41.655-39.069-59.202c-5.592-6.093-13.221-9.774-21.463-10.367c-9.87-0.735-19.419,3.042-26.168,10.353
							c-16.292,17.675-29.523,37.786-39.325,59.78c-0.014,0.032-0.026,0.063-0.04,0.094c-0.014,0.034-0.03,0.069-0.045,0.103
							c-1.392,3.137-2.7,6.27-3.875,9.298c-10.041,25.716-15.133,52.735-15.133,80.308v13.027c0,4.892,3.965,8.858,8.858,8.858
							s8.858-3.966,8.858-8.858v-13.027c0-25.359,4.684-50.211,13.926-73.88c0.443-1.14,0.918-2.303,1.397-3.466h98.397
							c10.17,24.607,15.332,50.595,15.332,77.346V450.26h-36.773v-27.417c0-4.892-3.965-8.858-8.858-8.858s-8.858,3.966-8.858,8.858
							v71.435h-20.078V387.783c0-5.536,4.503-10.039,10.039-10.039c5.536,0,10.039,4.503,10.039,10.039v5.534
							c0,4.892,3.965,8.858,8.858,8.858s8.858-3.966,8.858-8.858v-5.534c0-15.304-12.451-27.754-27.754-27.754
							c-15.304,0-27.754,12.451-27.754,27.754v62.477h-36.771V201.706c0-4.892-3.965-8.858-8.858-8.858s-8.858,3.966-8.858,8.858v1.772
							c0,31.136-12.991,59.569-33.1,72.439c-1.956,1.254-3.943,2.337-5.925,3.232c-24.055,10.931-41.821,37.085-47.52,69.961
							l-14.102,81.337c-0.783,4.512,2.002,8.876,6.422,10.066L173.77,465.9v37.243c0,4.892,3.965,8.858,8.858,8.858h146.768
							c4.893,0,8.858-3.966,8.858-8.858V465.9l94.202-25.386C436.876,439.323,439.659,434.96,438.877,430.45z M215.128,64.965
							c8.159-15.401,18.238-29.659,30.083-42.509c3.06-3.315,7.39-5.018,11.86-4.697c3.731,0.269,7.176,1.93,9.714,4.695
							c11.88,12.876,21.966,27.132,30.106,42.512H215.128z M173.77,447.553l-81.812-22.042l3.475-20.029h78.337V447.553z
							M173.77,387.766H98.504l6.174-35.63c4.628-26.694,18.957-48.481,37.375-56.849c2.744-1.239,5.493-2.738,8.169-4.451
							c9.148-5.856,17.117-14.144,23.548-24.107V387.766z M228.255,494.286h-36.771v-26.309h36.771V494.286z M320.537,494.285h-36.773
							v-26.309h36.773V494.285z M338.253,447.553v-39.505c0-0.008,0.001-0.015,0.001-0.024v-2.543h20.502
							c4.893,0,8.858-3.966,8.858-8.858s-3.965-8.858-8.858-8.858h-20.502V274.651c0-0.008-0.001-0.015-0.001-0.022v-7.896
							c6.432,9.97,14.398,18.267,23.553,24.119c2.629,1.679,5.357,3.168,8.118,4.427c18.442,8.379,32.781,30.167,37.419,56.855
							l6.167,35.633h-25.228c-4.893,0-8.858,3.966-8.858,8.858s3.965,8.858,8.858,8.858h28.295l3.466,20.029L338.253,447.553z"/>
					</g>
				</g>
			</g>
	</symbol>
	<symbol id="brush" viewBox="0 0 32 32" xmlns="http://www.w3.org/2000/svg">
			<g>
  				<path d="M27.555 8.42c-1.355 1.647-5.070 6.195-8.021 9.81l-3.747-3.804c3.389-3.016 7.584-6.744 9.1-8.079 2.697-2.377 5.062-3.791 5.576-3.213 0.322 0.32-0.533 2.396-2.908 5.286zM18.879 19.030c-1.143 1.399-2.127 2.604-2.729 3.343l-4.436-4.323c0.719-0.64 1.916-1.705 3.304-2.939l3.861 3.919zM15.489 23.183v-0.012c-2.575 9.88-14.018 4.2-14.018 4.2s4.801 0.605 4.801-3.873c0-4.341 4.412-4.733 4.683-4.753l4.543 4.427c0 0.001-0.009 0.011-0.009 0.011z"/>
			</g>
	</symbol>
</svg>